<?xml version="1.0" standalone="no"?>
<!DOCTYPE svg PUBLIC "-//W3C//DTD SVG 20010904//EN"
 "http://www.w3.org/TR/2001/REC-SVG-20010904/DTD/svg10.dtd">
<svg version="1.0" xmlns="http://www.w3.org/2000/svg"
 width="512.000000pt" height="512.000000pt" viewBox="0 0 512.000000 512.000000"
 preserveAspectRatio="xMidYMid meet">

<g transform="translate(0.000000,512.000000) scale(0.100000,-0.100000)"
fill="#000000" stroke="none">
<path d="M1570 5113 c-511 -50 -936 -283 -1229 -676 -202 -271 -305 -549 -333
-899 -50 -624 264 -1236 803 -1566 l64 -39 -3 -184 c-5 -312 41 -533 167 -791
237 -486 692 -830 1229 -930 139 -25 417 -30 547 -9 361 58 672 213 933 465
269 260 435 579 498 956 17 107 24 361 11 450 l-6 45 85 54 c364 230 635 609
735 1030 144 600 -44 1220 -497 1643 -245 228 -537 372 -884 433 -146 26 -412
25 -563 -4 -158 -29 -317 -81 -453 -148 l-112 -54 -99 49 c-112 57 -301 123
-413 146 -154 31 -344 43 -480 29z m417 -223 c105 -21 278 -77 346 -112 l40
-20 -39 -30 c-70 -55 -228 -223 -287 -305 -154 -215 -249 -435 -303 -703 -14
-65 -18 -139 -19 -313 l-1 -228 -80 -52 c-255 -168 -458 -394 -595 -665 -32
-64 -73 -159 -90 -211 -17 -53 -34 -99 -36 -104 -9 -16 -165 105 -279 218
-180 179 -286 349 -364 584 -105 315 -103 648 5 961 73 213 185 392 348 559
255 260 563 404 952 445 87 9 303 -4 402 -24z m1663 6 c614 -101 1101 -556
1229 -1150 117 -540 -56 -1080 -464 -1446 -93 -83 -195 -154 -205 -143 -4 4
-20 46 -35 93 -117 356 -389 698 -714 896 l-64 39 -1 230 c-2 254 -14 335 -76
530 -83 259 -215 471 -422 679 -76 76 -137 140 -136 141 11 8 166 67 223 85
185 58 472 77 665 46z m-879 -428 c205 -208 353 -491 404 -773 18 -99 32 -347
21 -389 l-6 -26 -52 21 c-29 11 -107 33 -173 49 -321 78 -640 63 -954 -44 -40
-14 -78 -23 -84 -19 -16 10 -1 314 22 425 70 345 264 660 539 880 l73 58 62
-47 c34 -27 100 -87 148 -135z m55 -1292 c134 -24 334 -88 334 -107 0 -31 -79
-238 -125 -329 -100 -194 -231 -355 -404 -494 l-71 -58 -58 43 c-139 106 -299
293 -397 465 -66 116 -155 358 -138 375 31 30 291 102 433 119 98 12 324 4
426 -14z m606 -255 c151 -107 279 -240 387 -400 77 -113 177 -340 196 -445 l7
-33 -89 -31 c-310 -110 -621 -120 -938 -31 -60 16 -245 91 -244 98 0 3 34 35
76 70 209 178 406 477 489 742 15 49 29 89 31 89 1 0 40 -26 85 -59z m-1622
-53 c82 -245 212 -449 412 -652 76 -76 138 -140 138 -141 0 -5 -108 -49 -189
-76 -307 -104 -665 -99 -978 13 -46 17 -83 33 -83 36 0 18 41 146 70 217 97
242 282 480 495 638 50 36 92 67 95 67 3 0 21 -46 40 -102z"/>
<path d="M1475 4559 c-333 -48 -649 -283 -805 -597 -71 -145 -120 -335 -120
-470 0 -97 71 -148 149 -107 35 18 48 50 56 140 23 249 142 485 323 638 142
120 314 189 502 203 104 7 137 19 155 55 27 52 11 110 -36 135 -31 16 -127 17
-224 3z"/>
<path d="M668 3184 c-34 -18 -48 -43 -48 -84 0 -42 15 -67 50 -85 43 -22 76
-18 111 13 26 24 32 36 32 72 0 36 -6 48 -32 72 -35 31 -71 35 -113 12z"/>
</g>
</svg>
