<?xml version="1.0" standalone="no"?>
<!DOCTYPE svg PUBLIC "-//W3C//DTD SVG 20010904//EN"
 "http://www.w3.org/TR/2001/REC-SVG-20010904/DTD/svg10.dtd">
<svg version="1.0" xmlns="http://www.w3.org/2000/svg"
 width="200.000000pt" height="200.000000pt" viewBox="0 0 200.000000 200.000000"
 preserveAspectRatio="xMidYMid meet">

<g transform="translate(0.000000,200.000000) scale(0.100000,-0.100000)"
fill="#000000" stroke="none">
<path d="M962 1993 c-55 -7 -73 -34 -74 -111 0 -37 4 -78 10 -92 5 -14 7 -51
4 -83 -5 -58 -5 -58 -35 -55 -17 2 -32 8 -34 15 -3 7 3 10 15 6 32 -8 35 13 8
54 -32 49 -40 109 -21 164 14 38 14 43 -2 55 -39 29 -103 7 -103 -34 0 -10 4
-32 10 -51 9 -33 9 -33 -20 -29 -17 3 -30 1 -30 -4 0 -8 7 -10 40 -12 11 -1
17 -20 23 -76 4 -41 5 -81 2 -87 -5 -16 -54 -17 -90 -3 -15 6 -33 6 -41 2 -8
-5 -29 -6 -45 -4 l-30 4 5 70 c5 64 4 70 -14 75 -11 3 -20 11 -20 19 0 8 -10
12 -29 11 l-30 -2 20 -33 c25 -43 24 -50 -4 -24 -15 14 -30 19 -45 15 -29 -7
-28 -19 3 -27 21 -5 24 -10 18 -38 -7 -37 14 -58 60 -58 21 0 28 -4 24 -14 -5
-13 41 -15 316 -19 255 -3 330 -7 359 -18 21 -9 41 -18 44 -22 4 -4 14 -7 23
-7 9 0 2 9 -16 21 -39 25 -41 42 -10 79 21 25 24 38 25 121 0 99 -11 142 -47
178 -19 19 -32 21 -128 19 -60 0 -123 -3 -141 -5z"/>
<path d="M477 1983 c-16 -15 -5 -43 23 -60 17 -9 30 -21 30 -25 0 -15 86 -8
110 9 13 9 36 17 50 17 20 1 25 6 25 26 0 37 -30 37 -72 0 -29 -26 -42 -31
-67 -26 -17 3 -42 20 -56 36 -26 31 -32 35 -43 23z"/>
<path d="M209 1968 c-1 -7 -1 -17 0 -21 1 -4 -12 -13 -29 -19 -41 -14 -33 -33
14 -33 20 0 41 -6 45 -13 5 -9 15 -10 32 -3 17 6 32 5 49 -4 18 -9 29 -10 37
-3 18 15 16 28 -4 26 -51 -4 -64 2 -57 26 3 15 -1 29 -11 40 -19 19 -74 22
-76 4z"/>
<path d="M1535 1950 c-11 -5 -32 -11 -46 -14 -16 -3 -30 -15 -34 -28 -6 -19
-8 -20 -12 -5 -5 20 -46 23 -62 4 -8 -10 -5 -26 13 -63 13 -27 20 -50 15 -52
-14 -5 -11 -23 4 -21 14 3 62 -16 80 -31 58 -47 79 -59 127 -70 30 -7 95 -23
143 -35 77 -20 89 -21 94 -8 5 13 7 13 15 -1 10 -17 38 -22 38 -7 0 5 9 7 20
4 11 -3 31 -2 45 1 23 6 25 11 25 62 0 40 -3 54 -12 51 -7 -2 -12 -12 -12 -21
1 -9 -2 -16 -7 -16 -8 0 -26 76 -21 93 1 4 -3 7 -9 7 -7 0 -10 -24 -8 -72 l4
-73 -40 0 -40 0 4 78 c2 51 0 77 -8 77 -6 0 -14 -18 -17 -40 -5 -33 -9 -38
-20 -29 -11 9 -18 8 -29 -1 -19 -16 -35 -4 -35 26 0 37 -17 28 -24 -13 -10
-56 -16 -73 -27 -73 -5 0 -9 11 -9 24 0 14 -10 32 -22 40 -21 15 -21 16 -3 36
24 27 28 125 5 125 -8 0 -17 -11 -21 -25 l-6 -25 -12 30 c-14 35 -50 75 -65
74 -6 0 -20 -4 -31 -9z m-65 -113 c0 -5 -4 -5 -10 -2 -5 3 -10 14 -10 23 0 15
2 15 10 2 5 -8 10 -19 10 -23z m171 -14 c-12 -20 -14 -14 -5 12 4 9 9 14 11
11 3 -2 0 -13 -6 -23z"/>
<path d="M7 1944 c-4 -4 -7 -16 -7 -28 0 -14 3 -17 11 -9 6 6 9 19 7 28 -1 9
-6 13 -11 9z"/>
<path d="M680 1860 c0 -5 5 -10 10 -10 6 0 10 5 10 10 0 6 -4 10 -10 10 -5 0
-10 -4 -10 -10z"/>
<path d="M290 1820 c-10 -19 -9 -21 12 -18 13 2 23 9 23 17 0 23 -23 24 -35 1z"/>
<path d="M167 1803 c-4 -3 -7 -18 -7 -32 l-1 -26 -15 28 c-19 35 -48 32 -52
-5 -2 -17 5 -33 19 -47 20 -18 20 -21 6 -27 -44 -16 0 -50 54 -42 18 2 24 10
25 28 1 14 4 43 8 64 9 46 -14 82 -37 59z"/>
<path d="M0 1761 c0 -12 5 -21 10 -21 6 0 10 6 10 14 0 8 -4 18 -10 21 -5 3
-10 -3 -10 -14z"/>
<path d="M1780 1770 c0 -5 7 -10 15 -10 8 0 15 5 15 10 0 6 -7 10 -15 10 -8 0
-15 -4 -15 -10z"/>
<path d="M297 1739 c-34 -26 -34 -37 -1 -50 33 -12 42 -4 25 23 -11 17 -11 22
0 29 8 4 11 10 8 14 -3 3 -18 -4 -32 -16z"/>
<path d="M1400 1746 c0 -8 5 -18 10 -21 6 -3 10 1 10 9 0 8 -4 18 -10 21 -5 3
-10 -1 -10 -9z"/>
<path d="M1394 1675 c-6 -15 11 -45 26 -45 14 0 20 32 9 46 -15 18 -28 18 -35
-1z"/>
<path d="M695 1671 c-3 -5 -1 -12 5 -16 5 -3 10 1 10 9 0 18 -6 21 -15 7z"/>
<path d="M1560 1619 c0 -5 5 -7 10 -4 6 3 10 8 10 11 0 2 -4 4 -10 4 -5 0 -10
-5 -10 -11z"/>
<path d="M467 1613 c-14 -25 -17 -85 -4 -103 19 -28 27 -15 27 46 0 48 -12 76
-23 57z"/>
<path d="M1586 1601 c-10 -11 -15 -24 -12 -29 3 -6 0 -12 -8 -15 -7 -3 -25 8
-39 25 -29 32 -53 33 -50 0 2 -17 -4 -21 -45 -24 -36 -4 -57 1 -92 20 l-45 24
30 -26 c69 -60 82 -73 117 -116 30 -37 36 -40 31 -20 -3 14 -17 38 -30 54 -30
36 -19 49 30 35 26 -7 43 -7 57 1 11 6 26 7 33 3 6 -4 21 -6 31 -4 11 1 55 -3
99 -9 74 -12 80 -15 89 -42 6 -16 15 -27 22 -25 14 5 19 28 8 42 -14 19 -91
75 -127 92 -37 18 -37 17 -56 -6 -22 -27 -39 -20 -21 9 22 36 7 43 -22 11z"/>
<path d="M610 1555 c0 -8 5 -15 10 -15 6 0 10 7 10 15 0 8 -4 15 -10 15 -5 0
-10 -7 -10 -15z"/>
<path d="M687 1563 c-12 -11 -8 -23 8 -23 8 0 15 7 15 15 0 16 -12 20 -23 8z"/>
<path d="M151 1523 c-46 -27 -68 -48 -78 -72 -8 -18 -11 -36 -7 -40 4 -3 9 1
12 9 6 18 75 87 117 118 46 33 27 26 -44 -15z"/>
<path d="M877 1543 c-12 -11 -8 -33 6 -33 7 0 18 9 25 20 10 17 10 20 -6 20
-10 0 -22 -3 -25 -7z"/>
<path d="M1097 1543 c-4 -3 -7 -11 -7 -17 0 -6 5 -5 12 2 6 6 9 14 7 17 -3 3
-9 2 -12 -2z"/>
<path d="M931 1536 c14 -12 99 -57 99 -52 0 9 -74 56 -89 56 -8 0 -12 -2 -10
-4z"/>
<path d="M1981 1497 c-16 -20 -6 -56 10 -40 6 6 9 21 7 33 -3 21 -4 22 -17 7z"/>
<path d="M1150 1482 c0 -15 11 -29 33 -42 37 -23 60 -22 65 3 3 15 0 16 -25 6
-23 -9 -30 -8 -38 6 -5 9 -15 24 -22 33 -11 15 -12 15 -13 -6z"/>
<path d="M470 1448 c0 -21 2 -38 4 -38 9 0 12 50 5 62 -6 8 -9 -1 -9 -24z"/>
<path d="M17 1418 c8 -72 13 -73 13 -5 0 32 -4 57 -10 57 -5 0 -7 -22 -3 -52z"/>
<path d="M421 1456 c-9 -10 -9 -16 -1 -21 16 -10 31 7 21 23 -6 10 -10 10 -20
-2z"/>
<path d="M1555 1438 c-16 -6 -37 -17 -46 -24 -9 -8 -18 -12 -20 -10 -2 2 -5
-37 -6 -87 -1 -95 -14 -135 -49 -162 -18 -13 -18 -14 -1 -15 9 0 17 4 17 10 0
18 54 38 89 32 24 -3 32 -1 27 7 -8 12 15 9 74 -8 14 -4 52 -5 85 -2 l60 6 3
38 c3 39 17 46 53 26 19 -9 19 -9 10 10 -20 36 -46 43 -68 18 -11 -12 -25 -31
-31 -42 -6 -11 -12 -14 -12 -7 0 19 28 70 41 74 20 7 -3 81 -29 93 -12 5 -22
15 -22 21 0 6 -29 16 -64 22 -73 14 -71 14 -111 0z m183 -123 c5 -4 -10 -35
-17 -35 -3 0 -11 12 -18 26 -11 23 -10 24 10 18 12 -3 23 -8 25 -9z"/>
<path d="M695 1390 c-16 -18 -17 -25 -6 -60 12 -39 31 -55 31 -25 0 8 7 15 15
15 23 0 21 -70 -2 -70 -17 -1 -17 -1 0 -14 27 -21 20 -36 -18 -36 -28 0 -35
-4 -35 -20 0 -14 9 -21 38 -27 l37 -7 -30 -6 c-61 -13 62 -23 229 -18 183 5
223 17 263 77 41 61 22 154 -39 191 -30 18 -50 20 -249 20 -203 0 -217 -1
-234 -20z m120 0 c-3 -5 -15 -15 -26 -20 -15 -8 -19 -7 -19 4 0 8 10 17 23 19
12 2 23 5 25 6 2 0 0 -3 -3 -9z m395 -174 c0 -8 -4 -18 -10 -21 -5 -3 -10 3
-10 14 0 12 5 21 10 21 6 0 10 -6 10 -14z"/>
<path d="M357 1385 c-18 -17 -12 -47 13 -70 16 -15 19 -15 34 0 19 19 21 56 4
73 -16 16 -33 15 -51 -3z"/>
<path d="M103 1307 c-18 -10 -10 -12 58 -12 43 0 79 3 79 6 0 21 -102 25 -137
6z"/>
<path d="M296 1283 c-6 -14 -5 -15 5 -6 7 7 10 15 7 18 -3 3 -9 -2 -12 -12z"/>
<path d="M1280 1291 c0 -6 5 -13 10 -16 6 -3 10 1 10 9 0 9 -4 16 -10 16 -5 0
-10 -4 -10 -9z"/>
<path d="M1952 1278 c-20 -20 -13 -28 13 -16 14 6 25 15 25 20 0 12 -24 10
-38 -4z"/>
<path d="M110 1246 c0 -18 39 -31 52 -18 15 15 0 32 -28 32 -14 0 -24 -6 -24
-14z"/>
<path d="M322 1244 c-35 -24 -26 -58 16 -62 26 -3 32 0 32 17 0 11 -4 23 -10
26 -15 10 -12 23 8 28 14 4 14 5 -3 6 -11 0 -31 -6 -43 -15z"/>
<path d="M468 1209 c-2 -24 -1 -57 2 -74 6 -26 8 -23 14 27 5 33 4 63 -2 74
-8 14 -10 8 -14 -27z"/>
<path d="M1444 1236 c-8 -22 -2 -27 16 -16 12 7 12 12 3 21 -10 10 -14 9 -19
-5z"/>
<path d="M205 1230 c3 -5 8 -10 11 -10 2 0 4 5 4 10 0 6 -5 10 -11 10 -5 0 -7
-4 -4 -10z"/>
<path d="M1282 1218 c6 -18 28 -21 28 -4 0 9 -7 16 -16 16 -9 0 -14 -5 -12
-12z"/>
<path d="M260 1180 c0 -13 21 -33 62 -59 35 -22 65 -38 67 -35 7 7 -52 64 -66
64 -8 0 -25 11 -38 25 -23 22 -25 22 -25 5z"/>
<path d="M1594 1148 c1 -13 -4 -22 -11 -20 -7 1 -13 -2 -13 -8 0 -5 11 -10 25
-10 21 0 25 5 25 30 0 18 -5 30 -13 30 -8 0 -13 -10 -13 -22z"/>
<path d="M1722 1138 c6 -18 28 -21 28 -4 0 9 -7 16 -16 16 -9 0 -14 -5 -12
-12z"/>
<path d="M1417 1119 c-9 -6 -17 -17 -17 -24 0 -20 -19 -19 -27 1 -5 13 -9 12
-28 -6 -26 -25 -25 -68 2 -87 102 -72 143 -122 163 -198 7 -27 18 -53 24 -57
24 -16 8 -151 -19 -161 -9 -4 -9 4 2 35 9 28 11 44 4 51 -7 7 -12 4 -17 -9 -3
-10 -10 -31 -16 -46 -5 -15 -7 -32 -2 -39 4 -8 3 -10 -4 -5 -7 4 -12 3 -12 -1
0 -5 -18 -37 -41 -72 -28 -43 -57 -73 -91 -94 l-50 -32 45 -18 c44 -18 45 -20
40 -54 -5 -28 -3 -35 8 -31 8 3 14 11 14 19 0 8 4 19 8 26 4 7 -5 24 -23 43
-16 17 -30 32 -30 33 0 2 15 13 33 26 l32 22 -28 -25 c-24 -22 -25 -26 -9 -26
22 0 58 -66 40 -72 -8 -3 -5 -16 9 -39 11 -19 26 -59 33 -89 28 -117 54 -149
148 -176 70 -21 359 -15 373 7 14 23 -74 43 -127 30 -55 -14 -144 -14 -144 0
0 5 5 7 10 4 6 -4 17 -1 25 5 8 6 19 9 25 5 5 -3 10 -1 10 4 0 6 -11 11 -24
11 -27 0 -119 68 -137 102 -15 29 -39 151 -39 201 0 21 6 52 14 70 18 43 74
93 111 100 57 11 85 26 85 47 0 11 -6 20 -14 20 -7 0 -19 7 -26 15 -7 8 -17
15 -22 15 -6 0 -7 -7 -4 -15 3 -8 9 -22 12 -31 6 -13 1 -14 -29 -9 -31 6 -40
3 -71 -27 -53 -49 -106 -144 -106 -189 0 -21 4 -39 10 -41 5 -1 14 -25 20 -53
5 -27 12 -60 16 -72 4 -14 2 -23 -5 -23 -6 0 -14 18 -17 40 -8 51 -20 59 -29
20 -9 -41 -21 -38 -21 5 0 23 -7 40 -19 49 -12 8 -19 26 -19 50 -1 25 -6 36
-16 36 -10 0 -7 5 7 15 13 9 30 32 40 53 26 56 93 152 117 166 19 12 65 28
162 57 17 5 44 9 62 9 17 0 34 5 37 10 4 6 -6 10 -22 10 -15 0 -37 7 -47 15
-30 23 -89 17 -203 -19 -17 -5 -23 -3 -23 7 0 8 9 17 20 20 23 6 27 39 7 56
-15 12 -11 75 4 65 5 -2 11 -28 15 -55 7 -52 24 -70 47 -51 7 6 35 12 62 14
l50 3 3 85 c4 101 -8 148 -49 195 -45 51 -85 59 -161 30 -35 -13 -71 -26 -82
-29 -15 -5 -18 -13 -13 -46 6 -46 -1 -49 -31 -17 -35 38 -45 75 -27 110 17 35
16 39 -8 26z m-47 -45 c0 -8 -4 -12 -10 -9 -5 3 -10 10 -10 16 0 5 5 9 10 9 6
0 10 -7 10 -16z"/>
<path d="M207 1113 c-14 -14 -5 -23 66 -62 120 -66 143 -101 153 -229 3 -42 8
-80 10 -83 2 -4 -8 -34 -21 -68 -14 -33 -25 -67 -25 -76 0 -33 30 -12 61 42
30 52 34 68 37 150 5 106 -3 164 -21 158 -7 -2 -29 18 -51 46 -29 38 -57 59
-117 89 -87 44 -83 43 -92 33z m250 -235 c-3 -8 -6 -5 -6 6 -1 11 2 17 5 13 3
-3 4 -12 1 -19z"/>
<path d="M1785 1073 c3 -15 15 -39 26 -54 11 -15 27 -45 36 -66 16 -37 16 -37
23 -13 8 29 -1 58 -36 118 -29 49 -60 59 -49 15z"/>
<path d="M1950 1054 c-34 -54 -45 -96 -32 -120 8 -14 11 -11 21 17 6 19 23 51
36 71 26 39 33 78 15 78 -6 0 -24 -21 -40 -46z"/>
<path d="M830 1030 c-12 -8 -11 -10 8 -10 12 0 22 5 22 10 0 13 -11 13 -30 0z"/>
<path d="M1275 1031 c-7 -12 12 -24 25 -16 11 7 4 25 -10 25 -5 0 -11 -4 -15
-9z"/>
<path d="M930 1000 c0 -5 4 -10 9 -10 6 0 13 5 16 10 3 6 -1 10 -9 10 -9 0
-16 -4 -16 -10z"/>
<path d="M244 988 c-10 -16 -6 -70 7 -82 5 -6 12 -2 16 10 4 10 15 19 23 19
17 0 24 24 12 41 -12 19 -49 26 -58 12z"/>
<path d="M458 993 c7 -3 16 -2 19 1 4 3 -2 6 -13 5 -11 0 -14 -3 -6 -6z"/>
<path d="M723 894 c-42 -18 -44 -48 -4 -69 27 -14 29 -19 30 -75 0 -57 -2 -61
-30 -75 -41 -22 -55 -61 -32 -87 17 -19 29 -20 243 -16 158 3 237 9 265 19 76
27 114 129 77 212 -39 89 -102 107 -362 106 -111 0 -164 -5 -187 -15z m478
-64 c17 -10 28 -40 14 -40 -15 0 -54 33 -49 41 7 11 11 11 35 -1z m-101 -234
c-6 -6 -16 -3 -28 7 -23 21 -36 21 -52 2 -7 -8 -16 -12 -21 -9 -5 3 -3 12 3
19 7 8 19 21 26 30 11 13 17 12 47 -12 22 -17 31 -31 25 -37z"/>
<path d="M300 861 c13 -26 43 -28 38 -3 -2 9 -14 18 -26 20 -21 3 -22 1 -12
-17z"/>
<path d="M64 855 c-4 -9 -2 -21 4 -27 15 -15 44 -1 40 19 -4 23 -36 29 -44 8z"/>
<path d="M366 829 c11 -55 23 -70 24 -28 0 21 -7 42 -15 49 -13 11 -14 8 -9
-21z"/>
<path d="M187 840 c-3 -8 -16 -41 -27 -73 -16 -42 -29 -61 -51 -73 -33 -17
-34 -37 -1 -42 38 -6 100 118 90 178 -3 18 -6 21 -11 10z"/>
<path d="M10 809 c0 -24 33 -49 63 -49 27 0 67 30 67 50 0 17 -15 11 -37 -14
-25 -28 -55 -25 -78 7 -11 16 -15 18 -15 6z"/>
<path d="M304 806 c-8 -21 -1 -49 13 -53 15 -5 35 31 27 51 -8 20 -33 21 -40
2z"/>
<path d="M360 739 c-13 -24 -4 -41 10 -19 10 16 13 40 5 40 -2 0 -9 -9 -15
-21z"/>
<path d="M1961 714 l-35 -11 35 -5 c39 -6 42 -5 37 14 -2 11 -10 11 -37 2z"/>
<path d="M290 690 c0 -5 5 -10 10 -10 6 0 10 5 10 10 0 6 -4 10 -10 10 -5 0
-10 -4 -10 -10z"/>
<path d="M0 670 c0 -11 40 -40 57 -40 24 0 13 16 -22 33 -19 9 -35 13 -35 7z"/>
<path d="M453 590 c-27 -33 -28 -43 -8 -60 21 -17 12 -24 -14 -10 -34 18 -27
-25 9 -52 17 -12 30 -25 30 -30 0 -18 -32 -6 -62 22 -19 19 -35 27 -41 21 -17
-17 3 -48 66 -101 61 -51 63 -52 114 -47 65 7 74 -3 65 -68 -6 -43 -11 -50
-31 -53 -14 -2 -40 -16 -60 -30 l-34 -27 6 31 c3 17 0 48 -8 70 -11 33 -17 39
-42 39 -26 0 -28 -3 -31 -46 -2 -32 2 -50 13 -59 8 -7 15 -21 15 -31 0 -10 9
-21 20 -24 30 -9 14 -25 -25 -25 -25 0 -35 5 -40 20 -6 20 -55 64 -62 56 -3
-2 0 -13 6 -24 11 -21 5 -52 -9 -52 -5 0 -12 9 -15 21 -8 26 -40 21 -40 -6 0
-13 -8 -21 -22 -23 -19 -3 -24 4 -34 43 -11 43 -50 87 -65 72 -3 -3 1 -28 10
-55 14 -48 45 -92 65 -92 5 0 11 -10 13 -22 2 -14 13 -24 33 -30 37 -10 696
-22 742 -13 28 5 33 10 33 34 0 15 -9 38 -20 51 -11 13 -20 27 -20 33 0 5 -12
6 -27 3 -21 -6 -31 -1 -55 24 -15 17 -28 35 -28 40 0 20 23 21 44 1 12 -12 29
-21 38 -21 8 0 23 -9 33 -20 10 -12 25 -18 32 -16 8 3 16 -1 19 -8 15 -40 74
-16 74 30 0 28 -11 36 -55 37 -29 1 -36 6 -45 30 -16 48 -12 63 30 101 l39 35
-304 -1 c-168 -1 -308 2 -311 5 -4 3 -6 63 -5 132 1 69 -2 125 -6 124 -5 0
-18 -13 -30 -29z m504 -326 c-3 -3 -12 -4 -19 -1 -8 3 -5 6 6 6 11 1 17 -2 13
-5z m-567 -200 c0 -32 -1 -34 -16 -20 -8 9 -34 17 -57 17 -30 2 -34 3 -14 6
15 2 40 11 55 19 15 7 28 14 30 14 1 0 2 -16 2 -36z"/>
<path d="M50 543 c0 -21 24 -53 40 -53 5 0 18 14 30 30 18 25 19 31 6 36 -8 3
-24 0 -36 -6 -18 -10 -24 -9 -31 1 -6 10 -9 8 -9 -8z"/>
<path d="M305 540 c-3 -5 -4 -14 -1 -18 12 -19 -17 -84 -55 -121 -22 -23 -76
-62 -121 -88 -45 -26 -76 -49 -70 -51 7 -2 27 5 45 17 17 11 55 32 82 47 92
48 145 116 145 185 0 29 -14 46 -25 29z"/>
<path d="M227 534 c-13 -13 -7 -52 8 -58 17 -6 29 13 23 40 -3 19 -20 28 -31
18z"/>
<path d="M1725 517 c-34 -10 -44 -20 -67 -66 -33 -65 -34 -84 -8 -155 37 -98
93 -128 168 -90 60 30 56 52 -7 33 -40 -12 -41 -12 -79 28 -26 26 -43 56 -51
87 -19 78 -14 84 100 110 43 9 47 67 6 65 -12 0 -40 -6 -62 -12z"/>
<path d="M1973 514 c-3 -8 2 -23 11 -32 15 -15 16 -14 16 16 0 33 -16 43 -27
16z"/>
<path d="M754 456 c-10 -8 -16 -18 -12 -22 10 -9 58 12 58 26 0 14 -23 12 -46
-4z"/>
<path d="M1752 435 c-18 -8 -36 -24 -41 -37 -12 -32 -2 -44 16 -19 8 12 25 21
40 21 l27 0 -22 -20 c-29 -28 -28 -64 3 -88 47 -38 88 0 70 65 -5 16 -7 37 -6
49 1 13 -7 24 -24 32 -14 7 -27 12 -28 12 -1 -1 -17 -7 -35 -15z"/>
<path d="M1954 426 c-3 -8 -4 -20 -3 -27 1 -8 -1 -21 -5 -31 -4 -9 -6 -31 -4
-50 2 -28 7 -34 31 -36 l27 -3 -1 80 c-1 73 -3 81 -20 81 -11 0 -22 -6 -25
-14z"/>
<path d="M350 393 c0 -5 9 -19 19 -32 22 -28 38 -12 19 19 -12 19 -38 28 -38
13z"/>
<path d="M1248 363 c7 -3 16 -2 19 1 4 3 -2 6 -13 5 -11 0 -14 -3 -6 -6z"/>
<path d="M1480 356 c0 -9 5 -16 10 -16 6 0 10 4 10 9 0 6 -4 13 -10 16 -5 3
-10 -1 -10 -9z"/>
<path d="M315 349 c-12 -19 4 -54 36 -78 38 -28 54 -17 38 27 -12 35 -63 70
-74 51z"/>
<path d="M1152 327 c-19 -6 -41 -21 -50 -35 -15 -23 -15 -25 3 -38 25 -19 41
-18 73 5 63 45 108 28 119 -44 l6 -40 -30 33 c-17 17 -35 32 -40 32 -13 0 -53
-30 -53 -40 0 -16 72 -95 98 -106 30 -13 69 -3 89 22 44 58 -81 228 -164 223
-10 -1 -33 -6 -51 -12z m127 -179 c-9 -16 -14 -19 -17 -9 -2 7 2 17 9 22 20
13 21 11 8 -13z"/>
<path d="M241 286 c-22 -26 19 -69 49 -51 17 10 11 44 -9 55 -25 13 -26 13
-40 -4z"/>
<path d="M1929 236 c8 -10 27 -24 43 -32 26 -14 28 -13 28 5 0 23 -4 26 -50
36 -32 7 -33 6 -21 -9z"/>
<path d="M83 185 c0 -22 2 -30 4 -17 2 12 2 30 0 40 -3 9 -5 -1 -4 -23z"/>
<path d="M0 136 c0 -16 5 -26 15 -26 19 0 19 24 0 40 -13 11 -15 8 -15 -14z"/>
<path d="M1416 102 c-4 -10 -20 -34 -37 -53 -24 -27 -27 -35 -14 -37 9 -2 22
1 30 8 17 14 47 100 35 100 -5 0 -11 -8 -14 -18z"/>
</g>
</svg>
